<svg id="CGN-Open-red_WTA_white" data-name="CGN-Open-red+WTA_white" xmlns="http://www.w3.org/2000/svg" width="69" height="67.955" viewBox="0 0 69 67.955">
  <defs>
    <style>
      .cls-1 {
        fill: #ed1a25;
      }

      .cls-2 {
        fill: #fff;
      }

      .cls-3 {
        fill: #050001;
      }
    </style>
  </defs>
  <g id="Square">
    <rect id="Rectangle_75" data-name="Rectangle 75" class="cls-1" width="69" height="67.942"/>
  </g>
  <g id="Symbol" transform="translate(0 6.74)">
    <path id="Path_205" data-name="Path 205" class="cls-2" d="M40.19,58.725A21.778,21.778,0,0,0,47.729,63.3V58.926a19.1,19.1,0,0,1-7.535-4.3Z" transform="translate(-25.5 -40.552)"/>
    <path id="Path_206" data-name="Path 206" class="cls-2" d="M40.19,47.877a21.9,21.9,0,0,0,7.535,4.546V48l-.791-.288A17.815,17.815,0,0,1,40.194,44C40.194,45.163,40.194,46.491,40.19,47.877Z" transform="translate(-25.5 -34.568)"/>
    <path id="Path_207" data-name="Path 207" class="cls-2" d="M37.473,25.733c.734.966,3.143,3.641,8.615,5.747V27.14c0-.319,1.246-1.1,1.246-1.936s.341-2.784-1.246-2.784H38.566c-1.587,0-1.246,1.941-1.246,2.784A1.184,1.184,0,0,0,37.473,25.733Z" transform="translate(-23.867 -22.42)"/>
    <path id="Path_208" data-name="Path 208" class="cls-2" d="M47.732,38.748A19.091,19.091,0,0,1,40.21,34.46v3.5A21.721,21.721,0,0,0,47.736,42.2Z" transform="translate(-25.511 -29.198)"/>
    <path id="Path_209" data-name="Path 209" class="cls-2" d="M40.157,69.783a21.839,21.839,0,0,0,7.43,4.541,4.664,4.664,0,0,0,.1-.9c0-.437,0-1.7,0-3.462A19.139,19.139,0,0,1,40.14,65.64Z" transform="translate(-25.472 -46.75)"/>
    <path id="Path_210" data-name="Path 210" class="cls-2" d="M28.451,82.6V81.548c.052-.14.1-.288.149-.437a19.266,19.266,0,0,1-7.334-4.261v2.9a4.991,4.991,0,0,0,.358,1.788V82.6c0,9.9-13.252,29.122-15.044,31.679H9.6c.175-.288.363-.568.546-.848l1.42.835h1.39a14.393,14.393,0,0,1,1.01-1.359v1.359H14.5v-1.508h2.133v1.508h.524v-1.508h2.133v1.508h.524v-1.508h2.133v1.508h.524v-1.508h2.4v1.508h.529v-1.508h2.391v1.508h.529v-1.508H30.44v1.508h.529v-1.508H33.1v1.508h.529v-1.508h2.115v1.508h.524V112.9a14.343,14.343,0,0,1,1.005,1.359h1.4l1.4-.844c.184.275.372.555.546.844h2.858C41.7,111.706,28.451,92.488,28.451,82.6Zm-16.88,31.355-1.276-.76c.4-.581.822-1.132,1.263-1.661Zm.524-.087v-2.81l1.774.542a18.108,18.108,0,0,0-1.788,2.268Zm1.871-2.365h0v-.026Zm0-.149-1.748-.542a20.642,20.642,0,0,1,1.748-1.748Zm19.668-2.325v-1.9a19.744,19.744,0,0,1,1.976,1.394Zm0,.144ZM14.5,108.76l1.976.5a18.453,18.453,0,0,0-2,1.691Zm2.133,3.466H14.548a16.778,16.778,0,0,1,2.063-1.871Zm0-3.059Zm0-.144-2.006-.5a18.667,18.667,0,0,1,2-1.394Zm2.657,3.2H17.135V110.4h2.133Zm0-2.347H17.253a16.792,16.792,0,0,1,2.006-1.2Zm-2.159-1.053v-1.853l1.976.717a17.483,17.483,0,0,0-1.976,1.136Zm2.133-1.215Zm0-.14-1.98-.726a16.9,16.9,0,0,1,1.98-.918Zm2.657,4.773H19.793v-1.823h2.133Zm0-2.347H19.793v-1.464a14.825,14.825,0,0,1,2.133-.8Zm-2.133-2.522v-1.608l1.945.927a14.711,14.711,0,0,0-1.945.669Zm2.133-.734Zm0-.153-1.936-.918a16.457,16.457,0,0,1,1.936-.529Zm2.92,5.761h-2.4v-1.823h2.4Zm0-2.347h-2.4V107.51a11.718,11.718,0,0,1,2.4-.323Zm-2.4-3.387v-1.425L24.6,106.2a12.094,12.094,0,0,0-2.146.293Zm2.4-.3Zm0-.153L22.66,104.9a15.664,15.664,0,0,1,2.185-.184Zm2.92,6.185H25.374v-1.823h2.391Zm0-2.347H25.374v-2.71a11.679,11.679,0,0,1,2.391.323ZM25.374,106.2Zm0-.157V104.7a15.662,15.662,0,0,1,2.185.184Zm2.391.437a11.988,11.988,0,0,0-2.146-.284l2.146-1.145Zm2.657,5.734H28.294v-1.823h2.129Zm0-2.347H28.294V107.62a14.773,14.773,0,0,1,2.129.8Zm-2.124-3.23Zm0-.153v-1.464a16.1,16.1,0,0,1,1.927.529Zm2.129.874a14.712,14.712,0,0,0-1.945-.686l1.941-.909Zm2.657,4.869H30.951V110.4h2.129ZM30.955,107.6Zm0-.149V105.81a17.177,17.177,0,0,1,1.976.918Zm2,2.43H30.951v-1.2a16.4,16.4,0,0,1,2,1.2Zm.127-1.071a17.812,17.812,0,0,0-1.971-1.136l1.971-.721Zm-8.007-5.367H25a24.434,24.434,0,0,0-8.855,2.137c2.885-1.512,4.371-9.515,4.371-9.515h0l1.381-6.993a.127.127,0,0,0,0-.087l-.179-.227a.1.1,0,0,1,.079-.166h.131a.1.1,0,0,0,.1-.083l.087-.437a.092.092,0,0,0-.022-.087l-.28-.354a.1.1,0,0,1,.079-.166h.258a.1.1,0,0,0,.1-.087l.249-1.346a.1.1,0,0,1,.205,0l.245,1.342a.109.109,0,0,0,.1.087h.319a.1.1,0,0,1,.074.17l-.328.363a.1.1,0,0,0-.026.087l.079.437a.1.1,0,0,0,.1.087.1.1,0,0,1,.079.175l-.074.079a.114.114,0,0,0-.026.092l1.193,6.482a.1.1,0,0,0,.1.087h1.014a.109.109,0,0,0,.1-.087l1.193-6.482a.114.114,0,0,0-.026-.092l-.074-.079a.1.1,0,0,1,.074-.175.1.1,0,0,0,.1-.087l.079-.437a.1.1,0,0,0-.026-.087l-.328-.363a.1.1,0,0,1,.074-.17h.306a.1.1,0,0,0,.1-.087l.249-1.342a.1.1,0,0,1,.205,0l.262,1.346a.109.109,0,0,0,.1.087h.219a.1.1,0,0,1,.083.166l-.284.354a.1.1,0,0,0,0,.087l.087.437a.1.1,0,0,0,.1.083h.127a.1.1,0,0,1,.083.166l-.179.227a.1.1,0,0,0-.022.087l1.381,6.993h0s1.495,8,4.371,9.515A24.379,24.379,0,0,0,25.077,103.441Zm8.532,8.785v-1.871a17.1,17.1,0,0,1,2.063,1.871Zm2.133-1.268a19.327,19.327,0,0,0-2-1.7l2-.507Zm.524-1.879a20.542,20.542,0,0,1,1.748,1.748l-1.748.542Zm0,2.421Zm1.866,2.365a17.329,17.329,0,0,0-1.774-2.268l1.774-.542Zm.529.087V111.54A19.647,19.647,0,0,1,39.92,113.2Z" transform="translate(-6.58 -53.06)"/>
  </g>
  <g id="Font" transform="translate(29.31 10.489)">
    <path id="Path_211" data-name="Path 211" class="cls-3" d="M100.051,33.749c0-.726-.35-1.311-1.149-1.311a1.6,1.6,0,0,0-1.206.511,5.055,5.055,0,0,0-.874,2.574,11.4,11.4,0,0,0-.262,1.879,1.128,1.128,0,0,0,1.193,1.2,1.805,1.805,0,0,0,1.665-1.311h1.7a3.593,3.593,0,0,1-3.5,2.758,2.522,2.522,0,0,1-2.745-2.531,11.613,11.613,0,0,1,.275-2.006c.337-1.718.551-2.723,1.355-3.527A3.5,3.5,0,0,1,98.988,31a2.538,2.538,0,0,1,2.719,2.758Z" transform="translate(-85.597 -30.999)"/>
    <path id="Path_212" data-name="Path 212" class="cls-3" d="M117.09,33.788c0-.817-.437-1.342-1.176-1.342a1.748,1.748,0,0,0-1.228.524c-.437.437-.616,1.053-.918,2.561a10.275,10.275,0,0,0-.249,1.879,1.11,1.11,0,0,0,1.2,1.2,1.967,1.967,0,0,0,1.844-1.792l.074-.389h-1.569l.267-1.377h3.208l-.236,1.276a4.758,4.758,0,0,1-1.241,2.736,3.462,3.462,0,0,1-2.461,1,2.525,2.525,0,0,1-2.758-2.531,11.071,11.071,0,0,1,.262-2.006c.437-2.146.642-2.8,1.355-3.5A3.527,3.527,0,0,1,115.989,31a2.6,2.6,0,0,1,2.758,2.8Z" transform="translate(-95.15 -31)"/>
    <path id="Path_213" data-name="Path 213" class="cls-3" d="M135.318,40.079h-1.407L131.594,34.5l-1.132,5.581H128.81L130.6,31.15H132l2.334,5.616,1.11-5.616h1.656Z" transform="translate(-104.697 -31.084)"/>
    <path id="Path_214" data-name="Path 214" class="cls-3" d="M80.183,60.227c-.337,1.718-.577,2.736-1.368,3.523a3.632,3.632,0,0,1-2.491,1.018,2.5,2.5,0,0,1-2.684-2.535,12.444,12.444,0,0,1,.275-2.006c.337-1.718.577-2.732,1.364-3.523a3.6,3.6,0,0,1,2.483-1.014,2.507,2.507,0,0,1,2.7,2.531A12.382,12.382,0,0,1,80.183,60.227Zm-2.531-3.09a1.643,1.643,0,0,0-1.233.546c-.337.363-.538.874-.874,2.544a11.56,11.56,0,0,0-.262,1.884,1.115,1.115,0,0,0,1.141,1.2,1.639,1.639,0,0,0,1.215-.538c.341-.367.542-.874.874-2.548a10.927,10.927,0,0,0,.254-1.879,1.11,1.11,0,0,0-1.115-1.211Z" transform="translate(-73.64 -44.898)"/>
    <path id="Path_215" data-name="Path 215" class="cls-3" d="M94.51,61.318H92.793l-.686,3.457H90.45l1.792-8.925h3.173a2.216,2.216,0,0,1,2.4,2.356A3.088,3.088,0,0,1,94.51,61.318Zm.629-4H93.61l-.516,2.526h1.482a1.495,1.495,0,0,0,1.565-1.5.913.913,0,0,0-1-1.023Z" transform="translate(-83.103 -44.984)"/>
    <path id="Path_216" data-name="Path 216" class="cls-3" d="M114.652,57.338h-3.934l-.437,2.242h3.374l-.288,1.455h-3.374l-.459,2.338h3.986l-.288,1.451H107.58l1.792-8.925h5.568Z" transform="translate(-92.746 -45.017)"/>
    <path id="Path_217" data-name="Path 217" class="cls-3" d="M130.7,64.785h-1.4l-2.321-5.577-1.106,5.577H124.21L126,55.86h1.4l2.334,5.59,1.115-5.59h1.656Z" transform="translate(-102.107 -44.994)"/>
    <path id="Path_218" data-name="Path 218" class="cls-2" d="M105.13,78.978l-.14-.044h-.184l-.07-.035h-.079l-.1-.07-.07-.122-.052-.127-.035-.122-.039-.052-.035-.166.026-.035v-.1l.114-.114v-.044h0l.044-.131.323-.743.162-.3.38-.6,1.071-1.189.249-.341v-.127l-.1.026.026-.035h-.1l-.149.083-.1.035h-.026l-.175.079-.184.14h-.026l-.1.052h0l-.074.061-.14.079-.026.035-.149.114-.17.162-.026.052-.149.14-.087.052h0l-.122.052h-.122l-.1.026h-.254l-.2-.1-.087-.061-.087-.114-.052-.052v-.057l-.079-.061V75.18l-.026-.026.026-.035.052-.114.232-.35.249-.267.511-.38.555-.275.376-.149h.052l.127-.052.35-.066h0l.184-.026h.315l.262.074.262.122.175.135.07.122v.044h0v.044l.066.087V74.1l.052.114v.035h0v.079h-.035l.052.052v.153h.026v.07h0l-.026.079h.052l-.026.087-.052.087h.035l-.048.157h0l-.026.052v.061h0l-.026.061v.24l-.057.044V75.5l-.031.079-.035.039v.052l-.38.437h-.026l-.026.026.026.061h-.079l-.066.061h-.026l-.087.114-.1.083v.035l-.24.219-.122.157h-.035l-.1.1-.026.052-.061.044-.157.227-.031.07h-.026l-.026.061-.061.052V77.5l-.026.035,1.464-.258h.2l.035.031h.061l.131.061h0l.052.026.087.1v.035l.044.031v.026l-.035.026V77.57h-.061l-.052.061h.1l.061-.031h0l-.026.035h-.114l.052.044v.035l-.1.026v.052h.052l-.052.026.07.057h.017v.179h0v.052l-.026.035h-.184V78.1h-.026v.044h-.052v.1l.061-.026h.1l-.031.048h-.052v.122h0v-.026h.087v.044h-.192v-.1h-.026v.052h0v-.035h-.131V78.3h-.131l-.026.044h-.079l-.1.044h0v-.044h.079l.035-.035h-.1L107,78.34v.035l-.109.044v.074h-.026l-.044.07h-.074l-.061.035h0l-.026.044h0V78.6h0l-.044.044h-.026l-.052.061h-.079l-.026.061-.1.031-.205.114H106.1l-.061.026-.253.048h-.175l-.061.026-.21-.039Zm1.748-2.487-.061.031h0Zm.135-.2Zm.249,2.146h-.026l.026-.031Zm.437-1.158V77.3h0Zm.114-2.679v.07h0Zm.031.323v.035h0Zm0,3.059Zm.044-.083-.031-.048v-.026l.044.031h.061v.026h-.035v.026h0v-.026Zm0,.481Zm0-.149h.07v.026h-.1Zm.149-.14h.026l-.026.026h0Z" transform="translate(-90.624 -54.891)"/>
    <path id="Path_219" data-name="Path 219" class="cls-2" d="M114.683,78.012l-.21-.114-.157-.1h0l-.1-.074-.157-.184V77.5h0v-.052l-.039-.035-.057-.1h0l-.214-.437-.079-.24-.048-.219-.035-.245v-.437l.031-.345.035-.205.179-.542.162-.28.026-.026.035-.061.074-.087h0l.035-.035.035-.079.1-.1.092-.114.184-.179.157-.114h0l.122-.061.162-.031h.14l.166.026.323.074.1.044h.079l.245.092h.087l.052.052h.1l.044.044h.035l.1.07v.044l.21.144v.074l.061.07v.026l.052.026V74.24h.026l.052.131.052.048.026.052v.052h.052V74.5l.061.079V74.6l.061.114.052.175.026.044v.157l.052.07v.455l-.035.087v.14h-.026v.323l-.035.087v.131l-.039.044v.061h0v.044l-.026.052v.079l.149.1h-.026v.052h0l-.035.044h0l-.026.026v.061l-.035.026h0v-.061h0v.07h0v.079h-.052v.052h-.035v.035h-.026v.026L117,77.2l-.026.052h0v.035l-.035.026h0l-.061.061v.07l-.035.044v.026l-.07.039-.048.061v.035H116.7v.035h0v.035h-.026l-.052.035h.035V77.7h-.026l-.1.1h-.035l-.035.035h-.026l-.026.048h-.057l.044-.039h-.026l-.07.044h-.026v.035l-.087.035h-.061l-.07.052h-.14l-.393.074h-.664Zm.437-.608h.236l.232-.079.166-.1.219-.188.17-.2.114-.184.066-.166h0l.066-.35v-.612l-.079-.3-.048-.149-.149-.288-.157-.245-.061-.052-.044-.087-.262-.267-.188-.149-.083.079-.1.122h0l-.07.087h0l-.144.175-.061.061-.035.079h0l-.035.061h0l-.035.131-.031.044-.035.131v.026l-.026.114-.057.157v.2l-.074.472v.35l.057.354.035.061v.079l.079.184.035.052.039.1.07.1.1.118.07.035Z" transform="translate(-96.129 -54.913)"/>
    <path id="Path_220" data-name="Path 220" class="cls-2" d="M124.144,79.321l-.14-.044h-.184l-.07-.039h-.079l-.1-.07-.066-.122-.052-.122-.035-.127-.044-.052-.031-.166.026-.035v-.1l.114-.114v-.044h0l.048-.131.319-.739.162-.306.385-.6,1.106-1.276.249-.341v-.035l-.1.026.026-.035h-.14l-.153.087-.1.031h-.026l-.175.079-.188.14h-.026l-.1.048h0l-.07.061-.14.079-.026.035-.149.114-.17.162-.026.052-.153.14-.087.052h0l-.122.052H123.7l-.1.026-.293.127-.2-.1-.087-.061-.087-.114-.052-.052v-.052l-.079-.066v-.044l-.026-.026.031-.035.052-.114.232-.345.249-.271.511-.38.551-.275.38-.144h.052l.122-.052.354-.066h0l.184-.026h.393l.262.074.262.122.175.135.066.122v.044h0v.044l.07.087v.035l.052.114v.035h0V74.8h-.039l.052.057v.149h.017v.07h0l-.026.079h.052l-.026.087-.057.087h.035l-.044.157h0l-.026.052V75.6h0l-.031.061v.061l-.052.044v.026l-.026.079-.035.044v.052l-.38.437h-.026l-.026.026v.061h-.079l-.061.061h-.026l-.087.114-.109.083v.035l-.236.219-.127.157h-.035l-.1.1-.026.052-.061.039-.162.227-.026.07h-.026l-.026.061-.061.052V77.8l-.026.035,1.464-.258h.2l.035.031h.061l.131.061h0l.052.026.087.1v.035l.044.031v.026l-.035.026V77.87h-.026l-.057.061h.026l.061-.035h0l-.026.035h-.114l.052.048v.031l-.1.026v.284h0l.07.057h.044v-.061h0v.052l-.026.035h-.188v-.044H126.6V78.4h-.057v.1l.061-.026h.1l-.026.052-.052-.022v.122h0v-.026h.087v.044h0l-.192.022h0v-.1h-.026v.179h0v-.035h-.044l-.07.035h-.009v-.026h-.131l-.026.039h-.083l-.1.044h0V78.77h.083l.035-.035h-.1l-.026.026V78.8l-.1.044v-.035h-.026l-.044.07h-.07l-.061.031h0l-.026.044h0v-.044h0l-.044.044h-.026l-.052.061h-.079l-.031.061-.1.035-.2.109h-.035l-.061.026-.258.052h-.17l-.066.026-.21-.039Zm1.748-2.487-.061.035h-.022l.066-.031Zm.131-.2Zm.253,2.15h-.026l.026-.035Zm.437-1.163v.026h0Zm.114-2.679v.07h0Zm.035.323V75.3h-.022Zm0,3.059Zm.044-.087-.035-.044v-.026l.044.026h.061v.026h-.035v.026h0v-.026Zm0,.481Zm0-.149h.074V78.6h-.1Zm.153-.14h.026l-.026.026h0Z" transform="translate(-101.302 -55.155)"/>
    <path id="Path_221" data-name="Path 221" class="cls-2" d="M133.73,78.157l-.21-.118-.153-.1h0l-.1-.074-.157-.184v-.035h0l-.026-.052-.035-.035-.061-.1h0l-.214-.437-.074-.24-.052-.219-.031-.245v-.437l.026-.341.039-.21.179-.542.162-.28.026-.026.035-.061.07-.087h0l.035-.035.039-.079.1-.1.087-.109.188-.184.157-.114h0l.122-.061.157-.031h.14l.17.026.319.074.1.044.079.022.245.087h.087l.052.052h.1l.044.044h.035l.1.07.026.044.21.144v.044l.061.07v.026l.052.026v-.026h.026l.048.131.052.048.026.052v.052h.052v.009l.061.079v.026l.061.114.048.175.026.048v.131l.052.07v.455l-.035.087v.14h-.031v.323l-.035.087v.131l-.035.044v.061h0v.044l-.026.052v.118l-.035.1h.157v.052h0l-.035.044h0l-.026.026v.061l-.035.026h0v-.044h0v.07h0v.1h-.052v.052H136.1v.035h-.026V77.4l-.026.026-.026.052h0v-.026l-.035.026h0l-.061.061v.07l-.039.044v.026l-.07.039-.044.061v.035h-.026v.035h0v.035h-.026l-.052.035h.035v-.061h-.026l-.1.1h-.035l-.039.035h-.026l-.026.052h-.052l.044-.044h-.026l-.07.039h-.026v.035l-.341.087h-.061l-.07.052h-.14l-.149.039h-.669Zm.437-.612h.236l.227-.079.166-.1.223-.188.17-.2.114-.184.061-.166h0l.061-.35V76.02l-.022-.358-.079-.3-.052-.153-.144-.288-.149-.24-.057-.052-.044-.087-.262-.267-.192-.149-.079.079-.1.122h0l-.074.083h0l-.144.175-.061.061-.035.079h0l-.035.061h-.022l-.035.131-.026.044-.035.131v.026l-.031.114-.052.157v.2l-.079.472v.35l.039.433.035.061v.079l.074.184.035.052.044.1.07.1.1.114.07.035Z" transform="translate(-106.842 -54.992)"/>
    <path id="Path_222" data-name="Path 222" class="cls-2" d="M82.083,35.074l1.093,0L81.951,41h-1.1Z" transform="translate(-77.699 -33.291)"/>
    <path id="Path_223" data-name="Path 223" class="cls-2" d="M86.933,35.074l1.093,0L86.8,41H85.7Z" transform="translate(-80.429 -33.291)"/>
    <path id="Path_224" data-name="Path 224" class="cls-2" d="M79.49,38.47l-.24,1.066,6.058.057.232-1.075Z" transform="translate(-76.798 -35.205)"/>
    <path id="Path_225" data-name="Path 225" class="cls-2" d="M78.466,43.21l-.236,1.066,6.058.057.232-1.075Z" transform="translate(-76.224 -37.873)"/>
    <path id="Path_226" data-name="Path 226" class="cls-2" d="M132.51,118.338c-1.145-2.972-5.52-4.065-9.773-2.439s-6.775,5.354-5.625,8.3,5.52,4.06,9.773,2.434S133.655,121.31,132.51,118.338Zm-6.316,1.989v2.347a.485.485,0,0,1-.476.5.5.5,0,0,1-.49-.5v-2.347H124l-1.084,2.448a1.13,1.13,0,0,1-.074.131.463.463,0,0,1-.411.271.437.437,0,0,1-.415-.267,1.186,1.186,0,0,1-.066-.122c0-.035-.778-1.748-.778-1.748l-.765,1.687s-.048.1-.074.153a.47.47,0,0,1-.874,0c0-.039-.044-.079-.066-.127l-1.149-2.592a.757.757,0,0,1-.035-.079.516.516,0,0,1,0-.476.468.468,0,0,1,.437-.24.529.529,0,0,1,.463.376l.039.07.752,1.7s.721-1.635.752-1.7l.044-.1c.14-.271.284-.35.468-.35a.523.523,0,0,1,.468.358l.048.109.743,1.678.787-1.788.048-.092a.437.437,0,0,1,.437-.262h3.842a.472.472,0,0,1,.472.476.481.481,0,0,1-.481.481h-1.311Zm3.164,2.872a.551.551,0,1,1,.538-.551.542.542,0,0,1-.538.551Zm1.617,0a.524.524,0,0,1-.437-.284l-.035-.057-1.136-2.041-1.141,2.032-.039.07a.533.533,0,0,1-.437.28.472.472,0,0,1-.476-.485.7.7,0,0,1,.109-.332l.048-.079,1.464-2.566.048-.074a.49.49,0,0,1,.437-.275h0a.476.476,0,0,1,.411.267l.048.074,1.477,2.587.031.057a.717.717,0,0,1,.114.341.472.472,0,0,1-.485.463Z" transform="translate(-97.955 -78.368)"/>
    <path id="Path_227" data-name="Path 227" class="cls-2" d="M114.43,146h.38v2.111h-.38Z" transform="translate(-96.602 -95.737)"/>
    <path id="Path_228" data-name="Path 228" class="cls-2" d="M116.52,146h.271l.511,1.206V146h.3v2.111h-.258l-.5-1.237v1.263h-.328Z" transform="translate(-97.778 -95.737)"/>
    <path id="Path_229" data-name="Path 229" class="cls-2" d="M120.319,146.3H120V146h1.049v.284h-.328v1.827h-.385Z" transform="translate(-99.737 -95.737)"/>
    <path id="Path_230" data-name="Path 230" class="cls-2" d="M123.28,146h.874v.271h-.5v.608h.393v.267h-.393v.7h.507v.262h-.874Z" transform="translate(-101.584 -95.737)"/>
    <path id="Path_231" data-name="Path 231" class="cls-2" d="M126.31,146h.507a.817.817,0,0,1,.5.127.511.511,0,0,1,.162.437.774.774,0,0,1-.057.328.376.376,0,0,1-.2.184l.293,1.04h-.385l-.254-.966h-.184v.966h-.38Zm.5.9a.323.323,0,0,0,.236-.074.385.385,0,0,0,.066-.249.358.358,0,0,0-.061-.24.262.262,0,0,0-.219-.079h-.144v.642Z" transform="translate(-103.29 -95.734)"/>
    <path id="Path_232" data-name="Path 232" class="cls-2" d="M130.13,146h.267l.511,1.206V146h.319v2.111h-.254l-.516-1.237v1.263h-.328Z" transform="translate(-105.44 -95.737)"/>
    <path id="Path_233" data-name="Path 233" class="cls-2" d="M134.046,146h.411l.437,2.111h-.358l-.083-.49h-.367l-.087.49h-.358Zm.354,1.377-.144-.874-.144.874Z" transform="translate(-107.416 -95.737)"/>
    <path id="Path_234" data-name="Path 234" class="cls-2" d="M137.262,146.3h-.332V146h1.049v.284h-.328v1.827h-.389Z" transform="translate(-109.268 -95.737)"/>
    <path id="Path_235" data-name="Path 235" class="cls-2" d="M140.27,146h.38v2.111h-.38Z" transform="translate(-111.148 -95.737)"/>
    <path id="Path_236" data-name="Path 236" class="cls-2" d="M142.418,147.971a.817.817,0,0,1-.14-.511v-.8a.8.8,0,0,1,.14-.507.586.586,0,0,1,.472-.17.568.568,0,0,1,.463.17.769.769,0,0,1,.144.507v.8a.791.791,0,0,1-.144.511.559.559,0,0,1-.463.175A.573.573,0,0,1,142.418,147.971Zm.642-.188a.48.48,0,0,0,.044-.236v-.97a.476.476,0,0,0-.044-.232.17.17,0,0,0-.17-.079.183.183,0,0,0-.175.079.485.485,0,0,0-.044.232v.97a.481.481,0,0,0,.044.236.184.184,0,0,0,.175.079.179.179,0,0,0,.17-.079Z" transform="translate(-112.277 -95.728)"/>
    <path id="Path_237" data-name="Path 237" class="cls-2" d="M146.19,146h.271l.52,1.224V146h.319v2.111h-.258l-.524-1.237v1.263h-.328Z" transform="translate(-114.481 -95.737)"/>
    <path id="Path_238" data-name="Path 238" class="cls-2" d="M150.116,146h.411l.437,2.111h-.354l-.083-.49h-.367l-.087.49h-.363Zm.35,1.377-.144-.874-.14.874Z" transform="translate(-116.462 -95.737)"/>
    <path id="Path_239" data-name="Path 239" class="cls-2" d="M153.5,146h.385v1.849h.511v.262h-.9Z" transform="translate(-118.596 -95.737)"/>
    <rect id="Rectangle_76" data-name="Rectangle 76" class="cls-2" width="17.972" height="0.297" transform="translate(17.832 53.515)"/>
  </g>
</svg>
