<svg id="surface1" xmlns="http://www.w3.org/2000/svg" width="17" height="19.964" viewBox="0 0 17 19.964">
  <path id="Path_52" data-name="Path 52" d="M16.98,5.416V5.4c-.009-.192-.014-.395-.018-.62A2.116,2.116,0,0,0,14.97,2.707,8.21,8.21,0,0,1,9.382.352L9.369.339a1.278,1.278,0,0,0-1.736,0L7.619.352A8.211,8.211,0,0,1,2.031,2.707,2.116,2.116,0,0,0,.039,4.78c0,.224-.009.427-.018.62v.036a21.636,21.636,0,0,0,.874,7.9A10.053,10.053,0,0,0,3.306,17.09a12.617,12.617,0,0,0,4.72,2.792,1.463,1.463,0,0,0,.193.053,1.429,1.429,0,0,0,.562,0,1.467,1.467,0,0,0,.194-.053,12.625,12.625,0,0,0,4.715-2.793A10.067,10.067,0,0,0,16.1,13.331,21.668,21.668,0,0,0,16.98,5.416ZM15,12.926c-1.028,2.787-3.126,4.7-6.414,5.85l-.037.01a.263.263,0,0,1-.1,0l-.037-.01c-3.292-1.148-5.391-3.06-6.418-5.847a20.413,20.413,0,0,1-.8-7.47V5.446c.009-.2.015-.415.019-.648a.94.94,0,0,1,.886-.92,10.278,10.278,0,0,0,3.488-.767A9.127,9.127,0,0,0,8.428,1.2a.108.108,0,0,1,.145,0,9.13,9.13,0,0,0,2.843,1.91,10.278,10.278,0,0,0,3.489.767.94.94,0,0,1,.886.921c0,.235.01.447.019.648A20.423,20.423,0,0,1,15,12.926Zm0,0" transform="translate(0 0.001)"/>
  <path id="Path_53" data-name="Path 53" d="M95.374,128.41a4.975,4.975,0,1,0,4.975,4.975A4.981,4.981,0,0,0,95.374,128.41Zm0,8.779a3.8,3.8,0,1,1,3.8-3.8A3.808,3.808,0,0,1,95.374,137.189Zm0,0" transform="translate(-86.874 -123.403)"/>
  <path id="Path_54" data-name="Path 54" d="M157.611,212.163l-2.311,2.311-.627-.627a.586.586,0,1,0-.828.828l1.041,1.041a.586.586,0,0,0,.828,0l2.725-2.725a.586.586,0,0,0-.828-.828Zm0,0" transform="translate(-147.681 -203.725)"/>
</svg>
